<?xml version="1.0" encoding="utf-8"?>
<!-- Generator: Adobe Illustrator 24.0.0, SVG Export Plug-In . SVG Version: 6.00 Build 0)  -->
<svg version="1.1" id="Capa_2" xmlns="http://www.w3.org/2000/svg" xmlns:xlink="http://www.w3.org/1999/xlink" x="0px" y="0px"
	 viewBox="0 0 211.7 73.8" style="enable-background:new 0 0 211.7 73.8;" xml:space="preserve">
<style type="text/css">
	.st0{fill:#8B2D85;}
</style>
<g>
	<path class="st0" d="M35.3,11.9c-13.9,0-25.2,11.3-25.2,25.2s11.3,25.2,25.2,25.2S60.5,51,60.5,37.1S49.2,11.9,35.3,11.9z M19,37.1
		c0-9,7.3-16.3,16.3-16.3c9,0,16.3,7.3,16.3,16.3c0,2.6-0.6,5-1.7,7.1L39,33.4l-7.8,7.8L42,52c-2.1,0.9-4.3,1.5-6.7,1.5
		C26.3,53.4,19,46.1,19,37.1z"/>
	<path class="st0" d="M98.8,41c-0.2-6-5.4-10.7-11.9-10.7c-3.6,0-7.3,1.5-9.4,3.8V11.4H66.8v49.3h10.8V41.5c1-1.9,3.6-3.2,6-3.2
		c2.2,0,3.8,1.1,4.9,2.7l0,0v6.6v4.8v8.4h10.3V41z"/>
	<path class="st0" d="M129.7,30.7v2c-2.6-1.9-6.3-3-9.7-3c-8.7,0-14.8,7.1-14.8,15.8c0,8.7,6.1,15.8,14.8,15.8c3.4,0,7.1-1.1,9.7-3
		v1.9h10.8V30.7H129.7z M123,52.9c-4.1,0-7.4-3.3-7.4-7.4s3.3-7.4,7.4-7.4c4.1,0,7.4,3.3,7.4,7.4S127.1,52.9,123,52.9z"/>
	<polygon class="st0" points="165.7,30.8 159.4,30.8 159.4,21.8 148.7,21.8 148.7,30.8 145.6,30.8 145.6,39.6 149.2,39.6 
		149.2,60.6 159.4,60.6 159.4,39.6 165.7,39.6 	"/>
	<path class="st0" d="M191.4,30.8v9.1v9.7c0,2-2.8,3.6-5.7,3.6s-5.7-1.6-5.7-3.6v-9.7v-9.1h-10.2v19.8c0,6.3,6.8,11.3,15.9,11.3
		c9,0,15.9-5.1,15.9-11.3V30.8H191.4z"/>
</g>
</svg>
